<svg width="967" height="1005" viewBox="0 0 967 1005" fill="none" xmlns="http://www.w3.org/2000/svg">
<g filter="url(#filter0_d)">
<path d="M582.17 80.2773C582.17 124.6 546.096 160.555 501.585 160.555C457.074 160.555 421 124.6 421 80.2773C421 35.9363 457.074 0 501.585 0C546.096 0 582.17 35.9363 582.17 80.2773Z" fill="#0E1524"/>
<path d="M575.69 80.2587C575.69 104.7 563.819 126.292 545.505 139.736C540.059 143.763 533.985 147.037 527.579 149.446C524.699 150.531 521.708 151.414 518.662 152.15C516.816 152.573 514.988 152.94 513.105 153.235C509.357 153.842 505.536 154.136 501.604 154.136C493.96 154.136 486.557 152.959 479.597 150.825C449.394 141.483 427.499 113.418 427.499 80.2771C427.499 68.7458 430.175 57.8583 434.902 48.1478C440.68 36.2119 449.579 26.0784 460.582 18.8139C463.148 17.0851 465.843 15.5403 468.631 14.1426C474.668 11.1632 481.148 8.97466 487.96 7.70567C492.391 6.87807 496.951 6.45508 501.604 6.45508C533.062 6.45508 559.979 26.0048 570.65 53.5731C573.918 61.8124 575.69 70.8424 575.69 80.2587Z" fill="#EFF4F4"/>
<path d="M501.585 83.9901C500.496 83.9901 499.425 83.512 498.686 82.6108L474.169 52.5229C472.877 50.9229 473.117 48.5872 474.723 47.2998C476.311 46.0124 478.674 46.2515 479.966 47.8516L504.465 77.9395C505.757 79.5395 505.517 81.8752 503.911 83.1625C503.246 83.7143 502.416 83.9901 501.585 83.9901Z" fill="#2C6AFA"/>
<g filter="url(#filter1_d)">
<path d="M516.133 80.2774C516.133 88.2775 509.616 94.7696 501.585 94.7696C493.554 94.7696 487.037 88.2775 487.037 80.2774C487.037 72.2772 493.554 65.7852 501.585 65.7852C509.616 65.7852 516.133 72.2588 516.133 80.2774Z" fill="#0E1524"/>
</g>
<path d="M464.145 127.008C463.277 127.008 462.409 126.714 461.708 126.089C460.139 124.746 459.972 122.392 461.339 120.847L498.779 77.8306C500.126 76.2674 502.49 76.1018 504.04 77.4628C505.61 78.8053 505.776 81.1594 504.41 82.7043L466.969 125.721C466.231 126.567 465.197 127.008 464.145 127.008Z" fill="#0E1524"/>
<path d="M911.44 180.501L778.35 566.181C776.116 572.673 769.008 576.13 762.473 573.905L545.973 499.771C539.456 497.545 535.986 490.446 538.22 483.954L671.309 98.2738C673.562 91.7817 680.67 88.2874 687.186 90.5127L903.686 164.647C910.221 166.891 913.692 174.008 911.44 180.501Z" fill="#7A8398"/>
<path d="M921.187 183.831L788.097 569.511C785.863 576.003 778.737 579.46 772.22 577.235L555.721 503.1C549.185 500.875 545.733 493.776 547.967 487.284L681.057 101.604C683.309 95.1118 690.417 91.6175 696.952 93.8428L913.452 167.977C919.969 170.221 923.439 177.339 921.187 183.831Z" fill="#CBCFD7"/>
<path d="M893.643 192.75L843.059 339.254L843.04 339.309L801.815 458.907L801.797 458.962L783.003 513.271L778.591 526.09C777.409 529.602 773.532 531.497 770.006 530.264L666.584 494.825L586.479 467.403C582.897 466.208 581.051 462.364 582.251 458.852L631.34 316.578L697.285 125.549C698.43 122.184 702.012 120.289 705.482 121.246C705.63 121.282 705.778 121.301 705.925 121.393L737.181 132.115L806.781 155.968L889.397 184.254C892.979 185.375 894.862 189.238 893.643 192.75Z" fill="#F0F8F8"/>
<path d="M667.47 530.041C661.341 527.944 658.073 521.268 660.177 515.162C662.282 509.038 668.965 505.801 675.113 507.898C681.242 509.994 684.51 516.67 682.405 522.776C680.282 528.9 673.599 532.137 667.47 530.041Z" fill="#447CFF"/>
<path d="M720.547 119.185C718.054 118.339 716.725 115.617 717.574 113.134C718.442 110.652 721.156 109.327 723.648 110.173C726.141 111.038 727.47 113.741 726.621 116.224C725.753 118.725 723.039 120.031 720.547 119.185Z" fill="#7A8398"/>
<path d="M763.877 440.309L758.541 438.489L766.517 415.389C770.265 404.539 769.545 392.897 764.486 382.58L749.809 352.657C745.157 343.168 749.126 331.691 758.652 327.057L788.689 312.436C799.028 307.397 806.8 298.661 810.548 287.81L818.523 264.711L823.84 266.532L815.865 289.631C811.637 301.898 802.849 311.792 791.163 317.475L761.126 332.096C754.406 335.37 751.6 343.48 754.886 350.193L769.563 380.115C775.286 391.775 776.099 404.943 771.852 417.21L763.877 440.309Z" fill="#CEE7EF"/>
<path d="M652.146 402.057L646.829 400.237L654.804 377.138C659.032 364.871 667.82 354.976 679.506 349.293L709.543 334.672C716.263 331.399 719.069 323.288 715.783 316.576L701.106 286.653C695.383 274.993 694.571 261.825 698.817 249.558L706.792 226.459L712.109 228.28L704.134 251.379C700.386 262.23 701.125 273.89 706.165 284.189L720.842 314.111C725.494 323.601 721.525 335.077 711.999 339.712L681.962 354.333C671.623 359.372 663.851 368.107 660.103 378.958L652.146 402.057Z" fill="#CEE7EF"/>
<path d="M824.597 272.402C823.988 272.402 823.379 272.31 822.77 272.09L704.209 231.482C701.274 230.471 699.704 227.289 700.72 224.346C701.735 221.422 704.929 219.859 707.883 220.87L826.443 261.478C829.379 262.49 830.948 265.671 829.933 268.614C829.12 270.931 826.942 272.402 824.597 272.402Z" fill="#9EA7BA"/>
<path d="M764.634 446.18C764.025 446.18 763.415 446.069 762.806 445.867L644.245 405.259C641.31 404.248 639.741 401.066 640.756 398.124C641.772 395.2 644.965 393.636 647.919 394.648L766.48 435.255C769.415 436.267 770.985 439.449 769.969 442.391C769.157 444.727 766.96 446.18 764.634 446.18Z" fill="#9EA7BA"/>
<path d="M715.451 272.753L737.55 317.829C738.565 319.907 741.094 320.772 743.18 319.76L788.43 297.746C791.809 296.109 791.495 291.217 787.95 290.003L720.602 266.941C717.057 265.727 713.808 269.387 715.451 272.753Z" fill="#2C6AFA"/>
<path d="M695.328 393.652L714.621 384.273C716.707 383.261 719.236 384.126 720.251 386.204L729.685 405.423C731.328 408.788 728.079 412.448 724.534 411.234L695.808 401.395C692.245 400.181 691.95 395.289 695.328 393.652Z" fill="#2C6AFA"/>
<path d="M726.712 372.357C725.9 374.748 723.297 375.999 720.897 375.19C718.497 374.362 717.241 371.769 718.054 369.396C718.866 367.006 721.488 365.755 723.869 366.564C726.269 367.392 727.543 369.985 726.712 372.357Z" fill="#2C6AFA"/>
<path d="M733.229 353.488C732.399 355.879 729.796 357.13 727.414 356.321C725.014 355.493 723.759 352.9 724.571 350.527C725.383 348.136 728.005 346.886 730.386 347.695C732.786 348.523 734.06 351.116 733.229 353.488Z" fill="#2C6AFA"/>
<path d="M739.747 334.617C738.916 337.008 736.313 338.259 733.931 337.45C731.531 336.64 730.276 334.029 731.088 331.656C731.919 329.265 734.522 328.015 736.904 328.824C739.304 329.633 740.559 332.245 739.747 334.617Z" fill="#2C6AFA"/>
<path d="M904.594 615.887L915.541 728.367C916.132 734.473 911.664 739.879 905.554 740.468L750.845 755.42C744.734 756.009 739.307 751.558 738.697 745.47L727.75 632.99C727.159 626.903 731.627 621.496 737.737 620.889L892.446 605.937C898.557 605.348 904.003 609.799 904.594 615.887Z" fill="#CBD4DB"/>
<path d="M907.03 596.663L925.159 708.224C926.137 714.275 922.021 719.957 915.947 720.932L762.512 745.668C756.438 746.643 750.733 742.542 749.755 736.491L731.644 624.93C730.666 618.88 734.783 613.197 740.838 612.222L894.291 587.486C900.347 586.53 906.051 590.631 907.03 596.663Z" fill="#D8E1EA"/>
<path d="M907.03 596.663L911.054 621.418L735.65 649.685L731.626 624.93C730.647 618.88 734.764 613.197 740.819 612.222L894.273 587.486C900.347 586.53 906.051 590.631 907.03 596.663Z" fill="#EB5757"/>
<path d="M911.077 621.46L735.677 649.727L736.983 657.77L912.383 629.503L911.077 621.46Z" fill="white"/>
<path d="M786.31 618.532C787.492 625.76 782.563 632.564 775.307 633.723C768.052 634.9 761.221 629.99 760.058 622.762C758.895 615.534 763.806 608.729 771.061 607.571C778.298 606.394 785.129 611.304 786.31 618.532Z" fill="#F2C94C"/>
<path d="M879.395 603.524C880.576 610.752 875.647 617.556 868.392 618.715C861.136 619.874 854.305 614.982 853.142 607.754C851.961 600.526 856.89 593.721 864.145 592.544C871.382 591.386 878.213 596.296 879.395 603.524Z" fill="#F2C94C"/>
<path d="M773.164 629.698C768.77 629.698 764.912 626.535 764.192 622.084L761.053 602.7C760.241 597.753 763.62 593.1 768.586 592.309C773.626 591.518 778.223 594.865 779.017 599.813L782.155 619.197C782.967 624.144 779.589 628.797 774.623 629.588C774.124 629.68 773.644 629.698 773.164 629.698Z" fill="#0E1524"/>
<path d="M866.248 614.706C861.854 614.706 857.996 611.542 857.276 607.092L854.137 587.707C853.325 582.76 856.704 578.107 861.67 577.316C866.691 576.544 871.307 579.873 872.101 584.82L875.239 604.204C876.051 609.151 872.673 613.804 867.707 614.595C867.208 614.669 866.728 614.706 866.248 614.706Z" fill="#0E1524"/>
<path d="M776.473 665.56L759.415 668.311L761.761 682.743L778.818 679.992L776.473 665.56Z" fill="#9EA7BA"/>
<path d="M894.418 646.579L877.359 649.33L879.705 663.764L896.764 661.013L894.418 646.579Z" fill="#9EA7BA"/>
<path d="M864.955 651.32L847.896 654.07L850.241 668.504L867.3 665.753L864.955 651.32Z" fill="#9EA7BA"/>
<path d="M835.505 656.066L818.447 658.816L820.792 673.25L837.851 670.499L835.505 656.066Z" fill="#9EA7BA"/>
<path d="M806.04 660.831L788.981 663.582L791.327 678.016L808.385 675.265L806.04 660.831Z" fill="#9EA7BA"/>
<path d="M780.377 689.025L763.319 691.775L765.664 706.209L782.723 703.458L780.377 689.025Z" fill="#9EA7BA"/>
<path d="M898.239 670.028L881.18 672.779L883.526 687.213L900.584 684.462L898.239 670.028Z" fill="#9EA7BA"/>
<path d="M868.664 674.775L851.606 677.525L853.952 691.958L871.009 689.207L868.664 674.775Z" fill="#9EA7BA"/>
<path d="M839.311 679.53L822.252 682.281L824.597 696.715L841.656 693.964L839.311 679.53Z" fill="#9EA7BA"/>
<path d="M809.843 684.286L792.784 687.037L795.129 701.471L812.188 698.72L809.843 684.286Z" fill="#9EA7BA"/>
<path d="M784.18 712.497L767.122 715.248L769.467 729.682L786.526 726.931L784.18 712.497Z" fill="#9EA7BA"/>
<path d="M902.046 693.491L884.987 696.242L887.333 710.676L904.392 707.925L902.046 693.491Z" fill="#9EA7BA"/>
<path d="M872.578 698.239L855.52 700.99L857.865 715.424L874.924 712.673L872.578 698.239Z" fill="#9EA7BA"/>
<path d="M843.111 702.987L826.052 705.738L828.398 720.172L845.457 717.421L843.111 702.987Z" fill="#9EA7BA"/>
<path d="M813.65 707.749L796.591 710.5L798.936 724.934L815.995 722.183L813.65 707.749Z" fill="#9EA7BA"/>
<path d="M70.4991 442.931C89.994 442.931 105.798 427.188 105.798 407.767C105.798 388.347 89.994 372.604 70.4991 372.604C51.0042 372.604 35.2004 388.347 35.2004 407.767C35.2004 427.188 51.0042 442.931 70.4991 442.931Z" fill="#F2994A"/>
<path d="M230.193 210.008C219.504 210.008 210.808 201.346 210.808 190.697C210.808 180.049 219.504 171.387 230.193 171.387C240.882 171.387 249.577 180.049 249.577 190.697C249.577 201.346 240.882 210.008 230.193 210.008ZM230.193 181.465C225.079 181.465 220.925 185.603 220.925 190.697C220.925 195.792 225.079 199.93 230.193 199.93C235.307 199.93 239.461 195.792 239.461 190.697C239.461 185.603 235.307 181.465 230.193 181.465Z" fill="#9B51E0"/>
<path d="M99.3358 212.73L52.7755 303.564C50.1909 308.584 52.2032 314.764 57.2432 317.32L232.869 406.646C237.909 409.22 244.112 407.216 246.678 402.195L293.238 311.361C294.604 308.695 294.66 305.697 293.7 303.085C292.795 300.786 291.152 298.8 288.771 297.586L113.145 208.261C110.764 207.047 108.179 206.881 105.797 207.507C103.102 208.261 100.702 210.063 99.3358 212.73Z" fill="#0E1524"/>
<path d="M105.797 207.505L149.754 304.077C156.64 319.157 173.108 327.544 189.409 324.252L293.699 303.102C292.795 300.803 291.152 298.817 288.77 297.603L113.144 208.277C110.781 207.063 108.178 206.88 105.797 207.505Z" fill="#37445F"/>
<path d="M361.558 195.592L389.509 261.046C391.06 264.669 395.269 266.361 398.906 264.816L525.461 211.169C529.098 209.625 530.796 205.431 529.245 201.808L501.294 136.354C500.482 134.442 498.894 133.062 497.048 132.419C495.405 131.867 493.596 131.867 491.897 132.584L365.343 186.231C363.626 186.948 362.371 188.254 361.651 189.817C360.857 191.583 360.746 193.679 361.558 195.592Z" fill="#F2994A"/>
<path d="M361.648 189.812L433.187 209.583C444.375 212.654 456.227 207.633 461.766 197.463L497.065 132.395C495.421 131.843 493.612 131.843 491.914 132.561L365.359 186.208C363.642 186.962 362.387 188.267 361.648 189.812Z" fill="#F2C94C"/>
<path d="M328.832 260.972H322.315V267.464C322.315 270.407 319.934 272.78 316.98 272.78C314.026 272.78 311.644 270.407 311.644 267.464V260.972H305.127C302.192 260.972 299.792 258.6 299.792 255.657C299.792 252.715 302.174 250.342 305.127 250.342H311.644V243.85C311.644 240.908 314.026 238.535 316.98 238.535C319.934 238.535 322.315 240.908 322.315 243.85V250.342H328.832C331.786 250.342 334.168 252.715 334.168 255.657C334.168 258.582 331.786 260.972 328.832 260.972Z" fill="#18CC55"/>
<path d="M732.312 851.233C721.623 851.233 712.928 842.571 712.928 831.922C712.928 821.274 721.623 812.611 732.312 812.611C743.002 812.611 751.697 821.274 751.697 831.922C751.697 842.571 743.002 851.233 732.312 851.233ZM732.312 822.69C727.199 822.69 723.045 826.828 723.045 831.922C723.045 837.016 727.199 841.154 732.312 841.154C737.426 841.154 741.58 837.016 741.58 831.922C741.58 826.828 737.426 822.69 732.312 822.69Z" fill="#18CC55"/>
<path d="M857.852 507.321C847.162 507.321 838.467 498.658 838.467 488.01C838.467 477.361 847.162 468.699 857.852 468.699C868.541 468.699 877.236 477.361 877.236 488.01C877.236 498.658 868.541 507.321 857.852 507.321ZM857.852 478.778C852.738 478.778 848.584 482.916 848.584 488.01C848.584 493.104 852.738 497.242 857.852 497.242C862.965 497.242 867.119 493.104 867.119 488.01C867.119 482.916 862.965 478.778 857.852 478.778Z" fill="#9B51E0"/>
<path d="M847.2 943.558H840.683V950.05C840.683 952.993 838.301 955.365 835.347 955.365C832.393 955.365 830.012 952.993 830.012 950.05V943.558H823.495C820.559 943.558 818.159 941.186 818.159 938.243C818.159 935.301 820.541 932.928 823.495 932.928H830.012V926.436C830.012 923.494 832.393 921.121 835.347 921.121C838.301 921.121 840.683 923.494 840.683 926.436V932.928H847.2C850.153 932.928 852.535 935.301 852.535 938.243C852.535 941.167 850.153 943.558 847.2 943.558Z" fill="#F2C94C"/>
<path d="M830.584 86.5309H824.067V93.023C824.067 95.9656 821.685 98.338 818.731 98.338C815.778 98.338 813.396 95.9656 813.396 93.023V86.5309H806.879C803.944 86.5309 801.544 84.1585 801.544 81.2159C801.544 78.2733 803.925 75.9009 806.879 75.9009H813.396V69.4088C813.396 66.4662 815.778 64.0938 818.731 64.0938C821.685 64.0938 824.067 66.4662 824.067 69.4088V75.9009H830.584C833.538 75.9009 835.919 78.2733 835.919 81.2159C835.919 84.1401 833.538 86.5309 830.584 86.5309Z" fill="#EB5757"/>
<path d="M92.2651 920.658C43.5818 920.658 4 881.209 4 832.712C4 784.215 43.5818 744.766 92.2651 744.766C140.948 744.766 180.567 784.215 180.567 832.712C180.567 881.209 140.948 920.658 92.2651 920.658ZM92.2651 780.04C63.1142 780.04 39.4094 803.672 39.4094 832.712C39.4094 861.752 63.1326 885.384 92.2651 885.384C121.453 885.384 145.158 861.752 145.158 832.712C145.158 803.672 121.453 780.04 92.2651 780.04Z" fill="#18CC55"/>
<path d="M25.3234 653.715C23.9203 653.715 22.7942 652.593 22.7942 651.196C22.7942 625.393 25.6004 599.664 31.1573 574.707C38.6712 540.922 51.1697 508.499 68.2837 478.3C68.9667 477.087 70.5175 476.664 71.736 477.344C72.9545 478.025 73.3791 479.569 72.696 480.783C55.8221 510.54 43.5081 542.504 36.105 575.792C30.6404 600.381 27.8527 625.761 27.8527 651.196C27.8527 652.593 26.7081 653.715 25.3234 653.715Z" fill="#9EA7BA"/>
<path d="M36.8797 743.038C35.7535 743.038 34.7382 742.284 34.4428 741.162C31.7843 731.121 29.5504 720.785 27.7781 710.486C27.5381 709.107 28.4797 707.819 29.8458 707.58C31.212 707.341 32.5228 708.279 32.7628 709.64C34.4982 719.792 36.6951 729.962 39.3166 739.857C39.6674 741.199 38.8736 742.579 37.5074 742.946C37.3043 743.02 37.1012 743.038 36.8797 743.038Z" fill="#9EA7BA"/>
<path d="M703.603 651.194C703.603 831.372 556.981 977.453 376.094 977.453C195.225 977.453 48.5845 831.39 48.5845 651.194C48.5845 470.998 195.207 324.936 376.094 324.936C556.981 324.936 703.603 470.998 703.603 651.194Z" fill="#2C6AFA"/>
<path d="M671.74 651.178C671.74 748.577 624.312 834.887 551.222 888.497C529.456 904.479 505.4 917.518 479.683 927.1C468.145 931.44 456.311 935.026 444.144 937.858C422.267 943.045 399.523 945.73 376.095 945.73C345.504 945.73 315.984 941.132 288.254 932.543C167.848 895.283 80.4316 783.391 80.4316 651.178C80.4316 605.181 91.0286 561.705 109.878 522.936C132.992 475.377 168.586 434.972 212.414 405.877C222.697 399.054 233.405 392.837 244.574 387.357C268.574 375.458 294.494 366.648 321.707 361.628C339.319 358.372 357.504 356.662 376.095 356.662C539.388 356.662 671.74 488.526 671.74 651.178Z" fill="#6291FF"/>
<path d="M664.041 651.178C664.041 746.021 617.85 830.105 546.662 882.317C525.468 897.895 502.04 910.603 476.987 919.909C465.763 924.139 454.224 927.615 442.39 930.392C421.085 935.431 398.931 938.061 376.113 938.061C346.316 938.061 317.571 933.573 290.562 925.205C173.293 888.92 88.1482 779.952 88.1482 651.178C88.1482 606.377 98.4682 564.041 116.838 526.284C139.342 479.956 174.013 440.599 216.697 412.277C226.721 405.619 237.134 399.569 248.008 394.235C271.38 382.649 296.636 374.079 323.128 369.186C340.279 366.005 357.984 364.35 376.094 364.35C535.123 364.35 664.041 492.775 664.041 651.178Z" fill="#EFF4F4"/>
<path d="M442.39 930.39C421.085 935.429 398.931 938.059 376.113 938.059C346.316 938.059 317.571 933.572 290.561 925.204L116.819 526.282C139.324 479.955 173.995 440.598 216.678 412.275L442.39 930.39Z" fill="white"/>
<path d="M546.661 882.316C525.467 897.894 502.039 910.602 476.987 919.908L248.007 394.234C271.379 382.648 296.635 374.078 323.127 369.186L546.661 882.316Z" fill="white"/>
<path d="M376.112 666.314C370.647 666.314 365.348 663.353 362.653 658.203C358.776 650.81 361.638 641.67 369.059 637.789L523.657 557.236C531.097 553.356 540.254 556.225 544.149 563.618C548.026 571.011 545.165 580.151 537.743 584.032L383.146 664.585C380.875 665.762 378.475 666.314 376.112 666.314Z" fill="#F2C94C"/>
<path d="M435.209 651.195C435.209 683.711 408.753 710.084 376.095 710.084C343.454 710.084 316.98 683.729 316.98 651.195C316.98 618.68 343.436 592.307 376.095 592.307C408.735 592.307 435.209 618.661 435.209 651.195Z" fill="#0E1524"/>
<path d="M376.113 666.309C371.017 666.309 366.051 663.771 363.19 659.137L241.417 462.646C237.023 455.547 239.22 446.223 246.364 441.845C253.509 437.45 262.851 439.657 267.263 446.774L389.018 643.247C393.411 650.346 391.214 659.67 384.07 664.065C381.577 665.574 378.827 666.309 376.113 666.309Z" fill="#0E1524"/>
<path d="M239.588 993.252H512.562C516.938 993.252 520.501 989.721 520.501 985.344C520.501 980.985 516.956 977.436 512.562 977.436H239.588C235.213 977.436 231.65 980.967 231.65 985.344C231.668 989.702 235.213 993.252 239.588 993.252Z" fill="#EDF0F7"/>
</g>
<defs>
<filter id="filter0_d" x="0" y="0" width="971" height="1013" filterUnits="userSpaceOnUse" color-interpolation-filters="sRGB">
<feFlood flood-opacity="0" result="BackgroundImageFix"/>
<feColorMatrix in="SourceAlpha" type="matrix" values="0 0 0 0 0 0 0 0 0 0 0 0 0 0 0 0 0 0 127 0"/>
<feOffset dy="4"/>
<feGaussianBlur stdDeviation="2"/>
<feColorMatrix type="matrix" values="0 0 0 0 0 0 0 0 0 0 0 0 0 0 0 0 0 0 0.25 0"/>
<feBlend mode="normal" in2="BackgroundImageFix" result="effect1_dropShadow"/>
<feBlend mode="normal" in="SourceGraphic" in2="effect1_dropShadow" result="shape"/>
</filter>
<filter id="filter1_d" x="483.037" y="65.7852" width="37.0955" height="36.9844" filterUnits="userSpaceOnUse" color-interpolation-filters="sRGB">
<feFlood flood-opacity="0" result="BackgroundImageFix"/>
<feColorMatrix in="SourceAlpha" type="matrix" values="0 0 0 0 0 0 0 0 0 0 0 0 0 0 0 0 0 0 127 0"/>
<feOffset dy="4"/>
<feGaussianBlur stdDeviation="2"/>
<feColorMatrix type="matrix" values="0 0 0 0 0 0 0 0 0 0 0 0 0 0 0 0 0 0 0.25 0"/>
<feBlend mode="normal" in2="BackgroundImageFix" result="effect1_dropShadow"/>
<feBlend mode="normal" in="SourceGraphic" in2="effect1_dropShadow" result="shape"/>
</filter>
</defs>
</svg>
